{"accessors" : [{"bufferView" : 0, "byteOffset" : 0, "componentType" : 5123, "count" : 780, "type" : "SCALAR", "max" : [315], "min" : [0]}, {"bufferView" : 1, "byteOffset" : 0, "componentType" : 5126, "count" : 316, "type" : "VEC3", "max" : [40, 1.8751726150512695, 1.4098390010985895E-08], "min" : [-40, -3.1248273849487305, -6.300000190734863], "name" : "POSITION"}, {"bufferView" : 1, "byteOffset" : 12, "componentType" : 5126, "count" : 316, "type" : "VEC3", "max" : [1.0000044107437134, 1.0000044107437134, 1.0000044107437134], "min" : [-1.0000044107437134, -1.0000044107437134, -1.0000044107437134], "name" : "NORMAL"}, {"bufferView" : 1, "byteOffset" : 24, "componentType" : 5126, "count" : 316, "type" : "VEC2", "max" : [80, 4.150000095367432], "min" : [-80, -79], "name" : "TEXCOORD_0"}], "asset" : {"generator" : "Aspose.3D 24.6.0", "version" : "2.0"}, "buffers" : [{"uri" : "buffer.bin", "byteLength" : 11680}], "bufferViews" : [{"buffer" : 0, "byteOffset" : 0, "byteLength" : 1560, "target" : 34963}, {"buffer" : 0, "byteOffset" : 1564, "byteLength" : 10112, "byteStride" : 32, "target" : 34962}], "materials" : [{"name" : "F_4db7a17186514deb80c0e63f880d8589", "pbrMetallicRoughness" : {"baseColorFactor" : [0.3500002920627594, 0.3500002920627594, 0.3500002920627594, 1], "metallicFactor" : 1, "roughnessFactor" : 0.2645750045776367}, "emissiveFactor" : [0, 0, 0], "alphaMode" : "OPAQUE", "doubleSided" : false}], "meshes" : [{"primitives" : [{"attributes" : {"POSITION" : 1, "NORMAL" : 2, "TEXCOORD_0" : 3}, "indices" : 0, "material" : 0, "mode" : 4}], "name" : "_________1"}], "nodes" : [{"matrix" : [10, 0, 0, 0, 0, 10, 0, 0, 0, 0, 10, 0, 0, 0, 0, 1], "mesh" : 0, "name" : "_________1"}, {"children" : [0], "name" : "BK"}], "scene" : 0, "scenes" : [{"nodes" : [1]}]}